<svg xmlns="http://www.w3.org/2000/svg" viewBox="0 0 64 64">
  <rect width="64" height="64" rx="14" fill="#007a3d"/>
  <path d="M32 10c4.6 5.6 4.6 9.5 0 14-4.6-4.5-4.6-8.4 0-14Z" fill="#fff"/>
  <path d="M32 54c-4.6-5.6-4.6-9.5 0-14 4.6 4.5 4.6 8.4 0 14Z" fill="#fff"/>
  <path d="M10 32c5.6-4.6 9.5-4.6 14 0-4.5 4.6-8.4 4.6-14 0Z" fill="#fff"/>
  <path d="M54 32c-5.6 4.6-9.5 4.6-14 0 4.5-4.6 8.4-4.6 14 0Z" fill="#fff"/>
  <circle cx="32" cy="32" r="13" fill="none" stroke="#fff" stroke-width="4"/>
  <path d="M24 33h16M32 25v16" stroke="#fff" stroke-width="4" stroke-linecap="round"/>
</svg>
